{"accessors" : [{"bufferView" : 0, "byteOffset" : 0, "componentType" : 5123, "count" : 27606, "type" : "SCALAR", "max" : [23609], "min" : [0]}, {"bufferView" : 1, "byteOffset" : 0, "componentType" : 5126, "count" : 23610, "type" : "VEC3", "max" : [243.337158203125, 500.46954345703125, 243.3380126953125], "min" : [-243.33798217773438, -495.2179870605469, -243.33712768554688], "name" : "POSITION"}, {"bufferView" : 1, "byteOffset" : 12, "componentType" : 5126, "count" : 23610, "type" : "VEC2", "max" : [0.9971470236778259, 0.9975559711456299], "min" : [0.0020379999186843634, 0.0004000067710876465], "name" : "TEXCOORD_0"}, {"bufferView" : 0, "byteOffset" : 55212, "componentType" : 5123, "count" : 666, "type" : "SCALAR", "max" : [665], "min" : [0]}, {"bufferView" : 2, "byteOffset" : 0, "componentType" : 5126, "count" : 666, "type" : "VEC3", "max" : [218.26596069335938, 491.7181091308594, 198.82479858398438], "min" : [-198.82476806640625, -495.2179870605469, -218.26593017578125], "name" : "POSITION"}, {"bufferView" : 2, "byteOffset" : 12, "componentType" : 5126, "count" : 666, "type" : "VEC2", "max" : [0.9910719990730286, 0.9806349873542786], "min" : [0.003739000065252185, 0.002592027187347412], "name" : "TEXCOORD_0"}], "asset" : {"generator" : "Aspose.3D 24.1.0", "version" : "2.0"}, "buffers" : [{"uri" : "data:application/octet-stream;base64,", "byteLength" : 621996}], "bufferViews" : [{"buffer" : 0, "byteOffset" : 0, "byteLength" : 56544, "target" : 34963}, {"buffer" : 0, "byteOffset" : 56548, "byteLength" : 552120, "byteStride" : 20, "target" : 34962}, {"buffer" : 0, "byteOffset" : 608672, "byteLength" : 13320, "byteStride" : 20, "target" : 34962}], "meshes" : [{"primitives" : [{"attributes" : {"POSITION" : 1, "TEXCOORD_0" : 2}, "indices" : 0, "mode" : 4}], "name" : ""}, {"primitives" : [{"attributes" : {"POSITION" : 4, "TEXCOORD_0" : 5}, "indices" : 3, "mode" : 4}], "name" : ""}], "nodes" : [{"mesh" : 0, "name" : "0-_LP"}, {"mesh" : 1, "name" : "0-_LP"}], "scene" : 0, "scenes" : [{"nodes" : [0, 1]}]}